<mxfile host="app.diagrams.net" modified="2023-04-14T19:30:33.580Z" agent="Mozilla/5.0 (X11; Linux x86_64) AppleWebKit/537.36 (KHTML, like Gecko) Chrome/112.0.0.0 Safari/537.36" etag="woJPvbjrsIxyQ6Eukgeg" version="21.1.7" type="device">
  <diagram id="tnet_LOf9Mh4IAzk4qz3" name="Página-1">
    <mxGraphModel dx="1050" dy="622" grid="1" gridSize="10" guides="1" tooltips="1" connect="1" arrows="1" fold="1" page="1" pageScale="1" pageWidth="827" pageHeight="1169" math="0" shadow="0">
      <root>
        <mxCell id="0" />
        <mxCell id="1" parent="0" />
        <mxCell id="9Fbn_BGN74yUHVzxx84l-1" value="" style="rounded=0;whiteSpace=wrap;html=1;" parent="1" vertex="1">
          <mxGeometry x="50" y="120" width="130" height="430" as="geometry" />
        </mxCell>
        <mxCell id="9Fbn_BGN74yUHVzxx84l-2" value="" style="rounded=0;whiteSpace=wrap;html=1;" parent="1" vertex="1">
          <mxGeometry x="180" y="120" width="530" height="430" as="geometry" />
        </mxCell>
        <mxCell id="9Fbn_BGN74yUHVzxx84l-3" value="Cidade com mais restaurantes" style="rounded=0;whiteSpace=wrap;html=1;" parent="1" vertex="1">
          <mxGeometry x="180" y="120" width="110" height="80" as="geometry" />
        </mxCell>
        <mxCell id="9Fbn_BGN74yUHVzxx84l-4" value="Cidade com maior preço médio" style="rounded=0;whiteSpace=wrap;html=1;" parent="1" vertex="1">
          <mxGeometry x="290" y="120" width="110" height="80" as="geometry" />
        </mxCell>
        <mxCell id="9Fbn_BGN74yUHVzxx84l-5" value="Cidade com o menor preço &lt;br&gt;médio" style="rounded=0;whiteSpace=wrap;html=1;" parent="1" vertex="1">
          <mxGeometry x="400" y="120" width="110" height="80" as="geometry" />
        </mxCell>
        <mxCell id="9Fbn_BGN74yUHVzxx84l-6" value="Cidade com &lt;br&gt;maior variação &lt;br&gt;de culinárias" style="rounded=0;whiteSpace=wrap;html=1;" parent="1" vertex="1">
          <mxGeometry x="510" y="120" width="100" height="80" as="geometry" />
        </mxCell>
        <mxCell id="9Fbn_BGN74yUHVzxx84l-7" value="Cidade com mais restaurantes &lt;br&gt;com nota &amp;gt; 4" style="rounded=0;whiteSpace=wrap;html=1;" parent="1" vertex="1">
          <mxGeometry x="610" y="120" width="100" height="80" as="geometry" />
        </mxCell>
        <mxCell id="9Fbn_BGN74yUHVzxx84l-9" value="" style="rounded=0;whiteSpace=wrap;html=1;" parent="1" vertex="1">
          <mxGeometry x="180" y="200" width="530" height="190" as="geometry" />
        </mxCell>
        <mxCell id="9Fbn_BGN74yUHVzxx84l-14" value="Logo" style="rounded=0;whiteSpace=wrap;html=1;" parent="1" vertex="1">
          <mxGeometry x="50" y="240" width="130" height="60" as="geometry" />
        </mxCell>
        <mxCell id="9Fbn_BGN74yUHVzxx84l-15" value="Menu de&lt;br&gt;Páginas" style="rounded=0;whiteSpace=wrap;html=1;" parent="1" vertex="1">
          <mxGeometry x="50" y="120" width="130" height="120" as="geometry" />
        </mxCell>
        <mxCell id="9Fbn_BGN74yUHVzxx84l-16" value="Slider" style="text;html=1;strokeColor=none;fillColor=none;align=center;verticalAlign=middle;whiteSpace=wrap;rounded=0;" parent="1" vertex="1">
          <mxGeometry x="80" y="370" width="60" height="30" as="geometry" />
        </mxCell>
        <mxCell id="9Fbn_BGN74yUHVzxx84l-17" value="Filtros" style="text;html=1;strokeColor=none;fillColor=none;align=center;verticalAlign=middle;whiteSpace=wrap;rounded=0;" parent="1" vertex="1">
          <mxGeometry x="80" y="330" width="60" height="30" as="geometry" />
        </mxCell>
        <mxCell id="9Fbn_BGN74yUHVzxx84l-18" value="Visão Cidade" style="text;html=1;strokeColor=none;fillColor=none;align=center;verticalAlign=middle;whiteSpace=wrap;rounded=0;fontSize=30;" parent="1" vertex="1">
          <mxGeometry x="80" y="70" width="250" height="30" as="geometry" />
        </mxCell>
        <mxCell id="9Fbn_BGN74yUHVzxx84l-19" value="País" style="text;html=1;strokeColor=none;fillColor=none;align=center;verticalAlign=middle;whiteSpace=wrap;rounded=0;fontSize=30;" parent="1" vertex="1">
          <mxGeometry x="50" y="680" width="250" height="30" as="geometry" />
        </mxCell>
        <mxCell id="9Fbn_BGN74yUHVzxx84l-20" value="" style="rounded=0;whiteSpace=wrap;html=1;" parent="1" vertex="1">
          <mxGeometry x="45" y="760" width="130" height="430" as="geometry" />
        </mxCell>
        <mxCell id="9Fbn_BGN74yUHVzxx84l-21" value="Logo" style="rounded=0;whiteSpace=wrap;html=1;" parent="1" vertex="1">
          <mxGeometry x="45" y="880" width="130" height="60" as="geometry" />
        </mxCell>
        <mxCell id="9Fbn_BGN74yUHVzxx84l-22" value="Menu de&lt;br&gt;Páginas" style="rounded=0;whiteSpace=wrap;html=1;" parent="1" vertex="1">
          <mxGeometry x="45" y="760" width="130" height="120" as="geometry" />
        </mxCell>
        <mxCell id="9Fbn_BGN74yUHVzxx84l-23" value="Slider" style="text;html=1;strokeColor=none;fillColor=none;align=center;verticalAlign=middle;whiteSpace=wrap;rounded=0;" parent="1" vertex="1">
          <mxGeometry x="75" y="1010" width="60" height="30" as="geometry" />
        </mxCell>
        <mxCell id="9Fbn_BGN74yUHVzxx84l-24" value="Filtros" style="text;html=1;strokeColor=none;fillColor=none;align=center;verticalAlign=middle;whiteSpace=wrap;rounded=0;" parent="1" vertex="1">
          <mxGeometry x="75" y="970" width="60" height="30" as="geometry" />
        </mxCell>
        <mxCell id="9Fbn_BGN74yUHVzxx84l-25" value="" style="rounded=0;whiteSpace=wrap;html=1;fontSize=30;" parent="1" vertex="1">
          <mxGeometry x="175" y="760" width="585" height="430" as="geometry" />
        </mxCell>
        <mxCell id="9Fbn_BGN74yUHVzxx84l-27" value="Filtro para&lt;br&gt;selecionar o&lt;br&gt;país" style="rounded=0;whiteSpace=wrap;html=1;fontSize=12;" parent="1" vertex="1">
          <mxGeometry x="175" y="760" width="145" height="120" as="geometry" />
        </mxCell>
        <mxCell id="9Fbn_BGN74yUHVzxx84l-29" value="Filtro para&lt;br&gt;selecionar uma&lt;br&gt;cidade" style="rounded=0;whiteSpace=wrap;html=1;fontSize=12;" parent="1" vertex="1">
          <mxGeometry x="320" y="760" width="145" height="120" as="geometry" />
        </mxCell>
        <mxCell id="XKOu04niRXjTQqe8XBP--1" value="Botão para selecionar o país" style="rounded=0;whiteSpace=wrap;html=1;" vertex="1" parent="1">
          <mxGeometry x="180" y="200" width="110" height="60" as="geometry" />
        </mxCell>
        <mxCell id="XKOu04niRXjTQqe8XBP--2" value="Botão para selecionar a&lt;br&gt;cidade" style="rounded=0;whiteSpace=wrap;html=1;" vertex="1" parent="1">
          <mxGeometry x="180" y="260" width="110" height="60" as="geometry" />
        </mxCell>
        <mxCell id="XKOu04niRXjTQqe8XBP--3" value="Radio button para selecionar o rating_text" style="rounded=0;whiteSpace=wrap;html=1;" vertex="1" parent="1">
          <mxGeometry x="180" y="320" width="110" height="70" as="geometry" />
        </mxCell>
        <mxCell id="XKOu04niRXjTQqe8XBP--4" value="Bandeira&lt;br&gt;do país" style="text;html=1;strokeColor=none;fillColor=none;align=center;verticalAlign=middle;whiteSpace=wrap;rounded=0;" vertex="1" parent="1">
          <mxGeometry x="320" y="215" width="60" height="30" as="geometry" />
        </mxCell>
        <mxCell id="XKOu04niRXjTQqe8XBP--5" value="Checkbox&amp;nbsp;&lt;br&gt;&quot;is_delivering_now&quot;" style="text;html=1;strokeColor=none;fillColor=none;align=center;verticalAlign=middle;whiteSpace=wrap;rounded=0;" vertex="1" parent="1">
          <mxGeometry x="320" y="270" width="60" height="30" as="geometry" />
        </mxCell>
        <mxCell id="XKOu04niRXjTQqe8XBP--6" value="Mapa" style="text;html=1;strokeColor=none;fillColor=none;align=center;verticalAlign=middle;whiteSpace=wrap;rounded=0;" vertex="1" parent="1">
          <mxGeometry x="470" y="225" width="140" height="105" as="geometry" />
        </mxCell>
        <mxCell id="XKOu04niRXjTQqe8XBP--7" value="Bar plot com o preço médio por intervalo de avaliação" style="text;html=1;strokeColor=none;fillColor=none;align=center;verticalAlign=middle;whiteSpace=wrap;rounded=0;" vertex="1" parent="1">
          <mxGeometry x="208" y="440" width="122" height="30" as="geometry" />
        </mxCell>
        <mxCell id="XKOu04niRXjTQqe8XBP--8" value="Informações gerais da cidade selecionada" style="text;html=1;strokeColor=none;fillColor=none;align=center;verticalAlign=middle;whiteSpace=wrap;rounded=0;" vertex="1" parent="1">
          <mxGeometry x="414" y="420" width="245" height="30" as="geometry" />
        </mxCell>
        <mxCell id="XKOu04niRXjTQqe8XBP--10" value="Número de restaurantes" style="text;html=1;strokeColor=none;fillColor=none;align=center;verticalAlign=middle;whiteSpace=wrap;rounded=0;" vertex="1" parent="1">
          <mxGeometry x="412.5" y="450" width="197.5" height="30" as="geometry" />
        </mxCell>
        <mxCell id="XKOu04niRXjTQqe8XBP--11" value="Restaurante mais barato" style="text;html=1;strokeColor=none;fillColor=none;align=center;verticalAlign=middle;whiteSpace=wrap;rounded=0;" vertex="1" parent="1">
          <mxGeometry x="440" y="480" width="172" height="30" as="geometry" />
        </mxCell>
        <mxCell id="XKOu04niRXjTQqe8XBP--12" value="Restaurante mais caro" style="text;html=1;strokeColor=none;fillColor=none;align=center;verticalAlign=middle;whiteSpace=wrap;rounded=0;" vertex="1" parent="1">
          <mxGeometry x="425.25" y="510" width="172" height="30" as="geometry" />
        </mxCell>
      </root>
    </mxGraphModel>
  </diagram>
</mxfile>
